<svg width="1600" height="720" viewBox="0 0 1600 720" fill="none" xmlns="http://www.w3.org/2000/svg">
  <rect width="1600" height="720" fill="#F1ECE3"/>
  <g stroke="#8E887D" stroke-opacity="0.35" stroke-width="1">
    <path d="M80 110H1520"/>
    <path d="M80 190H1520"/>
    <path d="M80 270H1520"/>
    <path d="M80 350H1520"/>
    <path d="M80 430H1520"/>
    <path d="M80 510H1520"/>
    <path d="M80 590H1520"/>
    <path d="M170 50V670"/>
    <path d="M330 50V670"/>
    <path d="M490 50V670"/>
    <path d="M650 50V670"/>
    <path d="M810 50V670"/>
    <path d="M970 50V670"/>
    <path d="M1130 50V670"/>
    <path d="M1290 50V670"/>
    <path d="M1450 50V670"/>
  </g>
  <g stroke="#2E3A46" stroke-opacity="0.55" stroke-width="4" stroke-linecap="round" stroke-linejoin="round">
    <path d="M180 470L320 320L470 400L640 250L820 340L970 220L1150 300"/>
    <path d="M180 470L260 220L470 400L560 170L820 340L920 160L1150 300"/>
    <path d="M320 320L560 170L640 250L920 160"/>
    <path d="M470 400L640 250"/>
    <path d="M640 250L820 340"/>
    <path d="M820 340L970 220"/>
  </g>
  <g fill="#2E3A46">
    <circle cx="180" cy="470" r="12"/>
    <circle cx="260" cy="220" r="12"/>
    <circle cx="320" cy="320" r="12"/>
    <circle cx="470" cy="400" r="12"/>
    <circle cx="560" cy="170" r="12"/>
    <circle cx="640" cy="250" r="12"/>
    <circle cx="820" cy="340" r="12"/>
    <circle cx="920" cy="160" r="12"/>
    <circle cx="970" cy="220" r="12"/>
    <circle cx="1150" cy="300" r="12"/>
  </g>
  <g stroke="#6E685E" stroke-opacity="0.5" stroke-width="2">
    <path d="M1180 170C1230 130 1320 130 1370 170C1420 210 1420 280 1370 320C1320 360 1230 360 1180 320C1130 280 1130 210 1180 170Z"/>
    <path d="M1195 245H1355"/>
    <path d="M1275 165V325"/>
    <path d="M420 555C490 525 570 520 650 540"/>
    <path d="M420 590C490 560 570 555 650 575"/>
  </g>
  <g fill="#4B463F" fill-opacity="0.7" font-family="Georgia, serif" font-size="34">
    <text x="1110" y="470">sigma = F / A</text>
    <text x="1080" y="525">phi(x) -> argmin J(x)</text>
    <text x="1115" y="580">u_(n+1) = K^(-1) f</text>
  </g>
</svg>
